<?xml version="1.0" encoding="utf-8"?>
<svg viewBox="0 0 500 500" xmlns="http://www.w3.org/2000/svg">
  <path d="M 404.345 51.005 L 188.053 51.005 L 188.053 118.809 L 152.004 118.809 L 152.004 17.102 L 440.394 17.102 L 440.394 322.225 L 152.004 322.225 L 152.004 220.517 L 188.053 220.517 L 188.053 288.322 L 404.345 288.322 L 404.345 51.005 Z" style="fill: rgb(76, 230, 204);" transform="matrix(0.9999999999999999, 0, 0, 0.9999999999999999, -7.105427357601002e-15, -7.105427357601002e-15)"/>
  <path d="M 292.722 258.72 L 268.733 233.345 L 311.757 187.886 L 104.849 187.886 L 104.849 152.021 L 311.757 152.021 L 268.733 106.543 L 292.722 81.187 L 376.701 169.953 L 292.722 258.72 Z" style="fill: rgb(76, 230, 204);" transform="matrix(0.9999999999999999, 0, 0, 0.9999999999999999, -7.105427357601002e-15, -7.105427357601002e-15)"/>
</svg>