<?xml version="1.0" encoding="utf-8"?>
<svg viewBox="0 0 500 500" xmlns="http://www.w3.org/2000/svg">
  <defs>
    <clipPath id="vlpa">
      <rect width="15870" height="8360"/>
    </clipPath>
  </defs>
  <g class="SlideGroup" transform="matrix(0.029370002448558804, 0, 0, 0.030234999954700467, 25.071176528930664, 141.39645385742188)" style="">
    <g class="Slide" clip-path="url(#vlpa)">
      <g class="Page">
        <g class="com.sun.star.drawing.ClosedBezierShape">
          <path d="m13810 7136c-95-1-190-1-284-1v164c26 1 77 1 103 1 1 297 0 594 1 890-26 1-78 1-104 1v169h284c1-408 0-816 0-1224zm-3487-7137h1337c1 471 0 943 0 1414h-1435c-395 1-808 201-986 566-178 348-120 749-130 1125 9 313-46 650 115 937 165 329 546 486 900 487 520 4 1040 1 1560 2 1 488 1 975 1 1463-484-1-967 3-1450-2-611-50-1225-241-1712-621-385-296-657-729-770-1200-103-395-81-805-83-1209 2-304-16-612 46-913 114-603 443-1174 946-1536 478-351 1077-486 1661-513zm-9481 735c420-389 996-566 1560-582 516-6 1031-1 1547 0 1 463 1 926 0 1389-481 0-961 0-1442-1-313 4-644 122-839 378-150 196-199 450-194 692 0 1122-1 2243 0 3364-491 1-983 3-1474-1v-3335c55-702 311-1421 842-1904zm3667 851h1426c1 578-1 1155 0 1733 14 313 105 635 310 878 165 199 416 316 672 329 193 10 387 2 581 5 226 573 627 1090 1165 1400-619-2-1237 5-1855-3-602-51-1184-325-1612-751-416-415-642-997-659-1579-17-671-19-1341-28-2012zm7363 0h1427c0 542 1 1083 0 1625-10 351 83 718 311 990 181 218 466 330 746 329 506 1 1011 0 1517 1v1403c-424-5-847-2-1271-3-235-2-473 13-703-40-774-158-1498-668-1807-1408-143-333-198-698-199-1060-6-612-12-1224-21-1837zm-9944 837c69-87 183-129 292-126 601 2 1202 0 1804 1 0 463-1 926 0 1389-727 1-1454 1-2181 0v-935c0-113 10-238 85-329zm-14 4712c95-1 190-1 284-1v164c-26 1-77 1-103 1-1 297 0 594-1 890 26 1 78 1 104 1v169h-284c-1-408 0-816 0-1224zm1420 480c92 0 183 0 274 1v104h-165v99h165c0 25 1 75 1 100h-166v249h-109v-553zm2037-19c161 0 285 125 285 289s-124 290-285 290-285-126-285-290 124-289 285-289zm-285 0zm571 581zm-281-471c102 0 180 82 180 189s-78 190-180 190-180-83-180-190 78-189 180-189zm-180 0zm361 381zm580-471h108c1 149 0 299 1 449 50 0 99-1 149-1v104h-258v-552zm681-1 118 2 100 193 98-195 115 1-40 79-42 77-40 79-19 40-17 40-4 59-1 60 2 118h-106l1-118-1-60-3-59-38-80-41-79-82-157zm1603 31 25-14 26-11 26-8 26-6 27-4 27-1 28 2 27 3 26 6 27 8 26 10 25 12 24 13 23 15 22 17 20 18-75 75-10-12-12-11-13-10-13-9-28-14-29-10-31-6-30-1-31 3-30 6-28 11-26 14-12 9-11 9-10 10-10 12-8 12-7 13-6 13-5 15-4 15-2 16v17 18l1 17 2 16 3 15 5 15 12 26 8 12 9 11 10 10 11 9 23 16 26 13 28 9 29 5 29 1 30-2 29-7 28-10 26-14 24-18 11-11 10-12 19 18 36 38 17 19-22 22-25 19-26 17-28 15-29 11-30 10-31 6-31 4-31 1-31-2-30-5-30-9-29-11-28-15-26-18-25-21-22-24-19-27-15-29-12-30-8-32-5-32-2-33 2-33 5-33 8-31 12-31 15-29 19-26 21-25 25-21 28-19zm3607-31c29 0 88 1 117 1 33 65 67 129 101 193 32-65 66-130 100-194 29 0 85 1 114 1-51 105-114 205-157 314-6 79-2 159-2 238h-109c0-79 3-158-3-237-47-108-107-210-161-316zm-7687-19c161 0 285 125 285 289s-124 290-285 290-285-126-285-290 124-289 285-289zm-285 0zm571 581zm-281-471c102 0 180 82 180 189s-78 190-180 190-180-83-180-190 78-189 180-189zm-180 0zm361 381zm5024-491c161 0 285 125 285 289s-124 290-285 290-285-126-285-290 124-289 285-289zm-285 0zm571 581zm-281-471c102 0 180 82 180 189s-78 190-180 190-180-83-180-190 78-189 180-189zm-180 0zm361 381zm844-491c161 0 285 125 285 289s-124 290-285 290-285-126-285-290 124-289 285-289zm-285 0zm571 581zm-281-471c102 0 180 82 180 189s-78 190-180 190-180-83-180-190 78-189 180-189zm-180 0zm361 381zm679-471h108c1 149 0 299 1 449 50 0 99-1 149-1v104h-258v-552z" style="fill: rgb(117, 139, 253);"/>
        </g>
      </g>
    </g>
  </g>
</svg>