{
  "accessors": [
    {
      "bufferView": 2,
      "componentType": 5126,
      "count": 119,
      "max": [
        0.15482507646083832,
        0.051200151443481445,
        0.11630666255950928
      ],
      "min": [
        -0.15482507646083832,
        -0.0964357852935791,
        -0.1275629997253418
      ],
      "type": "VEC3"
    },
    {
      "bufferView": 2,
      "byteOffset": 1428,
      "componentType": 5126,
      "count": 119,
      "max": [
        0.8886284232139587,
        0.9500276446342468,
        0.9613240361213684
      ],
      "min": [
        -0.8886283040046692,
        -0.9990332722663879,
        -0.9974536299705505
      ],
      "type": "VEC3"
    },
    {
      "bufferView": 1,
      "componentType": 5126,
      "count": 119,
      "max": [
        0.0,
        0.0
      ],
      "min": [
        0.0,
        0.0
      ],
      "type": "VEC2"
    },
    {
      "bufferView": 0,
      "componentType": 5125,
      "count": 690,
      "type": "SCALAR"
    },
    {
      "bufferView": 2,
      "byteOffset": 2856,
      "componentType": 5126,
      "count": 6258,
      "max": [
        4.70809268951416,
        1.5329829454421997,
        2.904621124267578
      ],
      "min": [
        -4.705387115478516,
        -2.090763807296753,
        -2.4833545684814453
      ],
      "type": "VEC3"
    },
    {
      "bufferView": 2,
      "byteOffset": 77952,
      "componentType": 5126,
      "count": 6258,
      "max": [
        0.9996878504753113,
        0.9999902248382568,
        0.9992373585700989
      ],
      "min": [
        -0.999664843082428,
        -0.9999013543128967,
        -0.999649167060852
      ],
      "type": "VEC3"
    },
    {
      "bufferView": 3,
      "componentType": 5126,
      "count": 6258,
      "max": [
        0.9999998807907104,
        0.9999988675117493,
        0.9928717613220215,
        1.0
      ],
      "min": [
        -0.9999998807907104,
        -0.9994572997093201,
        -0.9999950528144836,
        -1.0
      ],
      "type": "VEC4"
    },
    {
      "bufferView": 1,
      "byteOffset": 952,
      "componentType": 5126,
      "count": 6258,
      "max": [
        0.9993125200271606,
        0.9980494379997253
      ],
      "min": [
        0.0,
        0.0
      ],
      "type": "VEC2"
    },
    {
      "bufferView": 0,
      "byteOffset": 2760,
      "componentType": 5125,
      "count": 30360,
      "type": "SCALAR"
    },
    {
      "bufferView": 2,
      "byteOffset": 153048,
      "componentType": 5126,
      "count": 6565,
      "max": [
        4.75759744644165,
        1.5829815864562988,
        2.95452880859375
      ],
      "min": [
        -4.749537467956543,
        -2.1220293045043945,
        -2.5278539657592773
      ],
      "type": "VEC3"
    },
    {
      "bufferView": 2,
      "byteOffset": 231828,
      "componentType": 5126,
      "count": 6565,
      "max": [
        0.9996021389961243,
        0.9999179244041443,
        0.9997406005859375
      ],
      "min": [
        -0.999451220035553,
        -0.9999889135360718,
        -0.9991782903671265
      ],
      "type": "VEC3"
    },
    {
      "bufferView": 1,
      "byteOffset": 51016,
      "componentType": 5126,
      "count": 6565,
      "max": [
        0.9993125200271606,
        0.9980494379997253
      ],
      "min": [
        0.0,
        0.0
      ],
      "type": "VEC2"
    },
    {
      "bufferView": 0,
      "byteOffset": 124200,
      "componentType": 5125,
      "count": 32112,
      "type": "SCALAR"
    },
    {
      "bufferView": 2,
      "byteOffset": 310608,
      "componentType": 5126,
      "count": 8172,
      "max": [
        7.526201248168945,
        4.4098615646362305,
        20.066255569458008
      ],
      "min": [
        -11.97146987915039,
        -2.5988609790802,
        -0.7478355765342712
      ],
      "type": "VEC3"
    },
    {
      "bufferView": 2,
      "byteOffset": 408672,
      "componentType": 5126,
      "count": 8172,
      "max": [
        0.9999507665634155,
        0.9999668598175049,
        0.9999980926513672
      ],
      "min": [
        -0.9999507069587708,
        -0.9999984502792358,
        -0.9999957084655762
      ],
      "type": "VEC3"
    },
    {
      "bufferView": 3,
      "byteOffset": 100128,
      "componentType": 5126,
      "count": 8172,
      "max": [
        1.0,
        1.0,
        1.0,
        1.0
      ],
      "min": [
        0.9921568632125854,
        0.9921568632125854,
        0.9921568632125854,
        0.9921568632125854
      ],
      "type": "VEC4"
    },
    {
      "bufferView": 1,
      "byteOffset": 103536,
      "componentType": 5126,
      "count": 8172,
      "max": [
        0.9973865151405334,
        0.9947945475578308
      ],
      "min": [
        0.002613634569570422,
        0.002613633871078491
      ],
      "type": "VEC2"
    },
    {
      "bufferView": 0,
      "byteOffset": 252648,
      "componentType": 5125,
      "count": 31446,
      "type": "SCALAR"
    },
    {
      "bufferView": 2,
      "byteOffset": 506736,
      "componentType": 5126,
      "count": 8508,
      "max": [
        7.574947357177734,
        4.456171989440918,
        20.10104751586914
      ],
      "min": [
        -12.012455940246582,
        -2.64424991607666,
        -0.7818183898925781
      ],
      "type": "VEC3"
    },
    {
      "bufferView": 2,
      "byteOffset": 608832,
      "componentType": 5126,
      "count": 8508,
      "max": [
        0.9999901056289673,
        0.999941349029541,
        0.9999998211860657
      ],
      "min": [
        -0.9999901056289673,
        -0.9999986886978149,
        -0.9999987483024597
      ],
      "type": "VEC3"
    },
    {
      "bufferView": 3,
      "byteOffset": 230880,
      "componentType": 5126,
      "count": 8508,
      "max": [
        1.0,
        1.0,
        1.0,
        1.0
      ],
      "min": [
        1.0,
        1.0,
        1.0,
        1.0
      ],
      "type": "VEC4"
    },
    {
      "bufferView": 1,
      "byteOffset": 168912,
      "componentType": 5126,
      "count": 8508,
      "max": [
        0.9973865151405334,
        0.9947945475578308
      ],
      "min": [
        0.002613634569570422,
        0.002613633871078491
      ],
      "type": "VEC2"
    },
    {
      "bufferView": 0,
      "byteOffset": 378432,
      "componentType": 5125,
      "count": 33174,
      "type": "SCALAR"
    }
  ],
  "asset": {
    "extras": {
      "author": "3y6 (https://sketchfab.com/aka_3y6)",
      "license": "CC-BY-4.0 (http://creativecommons.org/licenses/by/4.0/)",
      "source": "https://sketchfab.com/3d-models/canti-flcl-086c1f928b6e412ba396bba996910fb6",
      "title": "Canti FLCL"
    },
    "generator": "Sketchfab-13.41.0",
    "version": "2.0"
  },
  "bufferViews": [
    {
      "buffer": 0,
      "byteLength": 511128,
      "name": "floatBufferViews",
      "target": 34963
    },
    {
      "buffer": 0,
      "byteLength": 236976,
      "byteOffset": 511128,
      "byteStride": 8,
      "name": "floatBufferViews",
      "target": 34962
    },
    {
      "buffer": 0,
      "byteLength": 710928,
      "byteOffset": 748104,
      "byteStride": 12,
      "name": "floatBufferViews",
      "target": 34962
    },
    {
      "buffer": 0,
      "byteLength": 367008,
      "byteOffset": 1459032,
      "byteStride": 16,
      "name": "floatBufferViews",
      "target": 34962
    }
  ],
  "buffers": [
    {
      "byteLength": 1826040,
      "uri": ".bin"
    }
  ],
  "images": [
    {
      "uri": "textures/jaket_baseColor.png"
    },
    {
      "uri": "textures/jaket_normal.png"
    },
    {
      "uri": "textures/canti_baseColor.png"
    }
  ],
  "materials": [
    {
      "doubleSided": true,
      "name": "head_screen",
      "pbrMetallicRoughness": {
        "baseColorFactor": [
          0.12937723731418985,
          0.2844726476767342,
          0.2953043464009595,
          1.0
        ],
        "metallicFactor": 0.0,
        "roughnessFactor": 0.22400068266874718
      }
    },
    {
      "doubleSided": true,
      "name": "jaket",
      "normalTexture": {
        "index": 1
      },
      "pbrMetallicRoughness": {
        "baseColorTexture": {
          "index": 0
        },
        "metallicFactor": 0.0
      }
    },
    {
      "name": "outline",
      "pbrMetallicRoughness": {
        "baseColorFactor": [
          0.0,
          0.0,
          0.0,
          1.0
        ],
        "metallicFactor": 0.0,
        "roughnessFactor": 0.8040408205773457
      }
    },
    {
      "doubleSided": true,
      "name": "canti",
      "pbrMetallicRoughness": {
        "baseColorTexture": {
          "index": 2
        },
        "metallicFactor": 0.0
      }
    }
  ],
  "meshes": [
    {
      "name": "head_screen.002_head_screen_0",
      "primitives": [
        {
          "attributes": {
            "NORMAL": 1,
            "POSITION": 0,
            "TEXCOORD_0": 2
          },
          "indices": 3,
          "material": 0,
          "mode": 4
        }
      ]
    },
    {
      "name": "jaket lr.001_jaket_0",
      "primitives": [
        {
          "attributes": {
            "NORMAL": 5,
            "POSITION": 4,
            "TANGENT": 6,
            "TEXCOORD_0": 7
          },
          "indices": 8,
          "material": 1,
          "mode": 4
        }
      ]
    },
    {
      "name": "jaket lr.001_outline_0",
      "primitives": [
        {
          "attributes": {
            "NORMAL": 10,
            "POSITION": 9,
            "TEXCOORD_0": 11
          },
          "indices": 12,
          "material": 2,
          "mode": 4
        }
      ]
    },
    {
      "name": "canti_canti_0",
      "primitives": [
        {
          "attributes": {
            "COLOR_0": 15,
            "NORMAL": 14,
            "POSITION": 13,
            "TEXCOORD_0": 16
          },
          "indices": 17,
          "material": 3,
          "mode": 4
        }
      ]
    },
    {
      "name": "canti_outline_0",
      "primitives": [
        {
          "attributes": {
            "COLOR_0": 20,
            "NORMAL": 19,
            "POSITION": 18,
            "TEXCOORD_0": 21
          },
          "indices": 22,
          "material": 2,
          "mode": 4
        }
      ]
    }
  ],
  "nodes": [
    {
      "children": [
        1
      ],
      "matrix": [
        1.0,
        0.0,
        0.0,
        0.0,
        0.0,
        2.220446049250313e-16,
        -1.0,
        0.0,
        0.0,
        1.0,
        2.220446049250313e-16,
        0.0,
        0.0,
        0.0,
        0.0,
        1.0
      ],
      "name": "Sketchfab_model"
    },
    {
      "children": [
        2
      ],
      "matrix": [
        0.009999999776482582,
        0.0,
        0.0,
        0.0,
        0.0,
        0.0,
        0.009999999776482582,
        0.0,
        0.0,
        -0.009999999776482582,
        0.0,
        0.0,
        0.0,
        0.0,
        0.0,
        1.0
      ],
      "name": "453a17c8340f44beb17e5136dd609d7d.fbx"
    },
    {
      "children": [
        3,
        5,
        8
      ],
      "name": "RootNode"
    },
    {
      "children": [
        4
      ],
      "matrix": [
        97.86339569091797,
        2.59716068967802e-15,
        -1.5576344151429583e-16,
        0.0,
        1.209896211804822e-16,
        -9.085294303487217,
        -75.47030248438578,
        0.0,
        -2.0173391508093677e-15,
        75.47030248438578,
        -9.085294303487217,
        0.0,
        -4.3272646621517197e-07,
        185.91122436523438,
        20.539287567138672,
        1.0
      ],
      "name": "head_screen.002"
    },
    {
      "mesh": 0,
      "name": "head_screen.002_head_screen_0"
    },
    {
      "children": [
        6,
        7
      ],
      "matrix": [
        10.0,
        0.0,
        0.0,
        0.0,
        0.0,
        -1.6292067939183141e-06,
        -9.999999999999869,
        0.0,
        0.0,
        9.999999999999869,
        -1.6292067939183141e-06,
        0.0,
        0.0,
        143.93267822265625,
        0.0,
        1.0
      ],
      "name": "jaket lr.001"
    },
    {
      "mesh": 1,
      "name": "jaket lr.001_jaket_0"
    },
    {
      "mesh": 2,
      "name": "jaket lr.001_outline_0"
    },
    {
      "children": [
        9,
        10
      ],
      "matrix": [
        9.735912816980832,
        9.686207613768261e-08,
        -2.2829808628519697,
        0.0,
        -2.282980862851971,
        7.322657402664134e-07,
        -9.735912816980807,
        0.0,
        7.287079425988274e-08,
        9.999999999999973,
        7.35040966981515e-07,
        0.0,
        23.065107345581055,
        7.813043594360352,
        5.447890758514404,
        1.0
      ],
      "name": "canti"
    },
    {
      "mesh": 3,
      "name": "canti_canti_0"
    },
    {
      "mesh": 4,
      "name": "canti_outline_0"
    }
  ],
  "samplers": [
    {
      "magFilter": 9729,
      "minFilter": 9987,
      "wrapS": 10497,
      "wrapT": 10497
    }
  ],
  "scene": 0,
  "scenes": [
    {
      "name": "Sketchfab_Scene",
      "nodes": [
        0
      ]
    }
  ],
  "textures": [
    {
      "sampler": 0,
      "source": 0
    },
    {
      "sampler": 0,
      "source": 1
    },
    {
      "sampler": 0,
      "source": 2
    }
  ]
}
